<svg version="1.1" id="Layer_1" xmlns="http://www.w3.org/2000/svg" x="0" y="0" viewBox="0 0 38 60" style="enable-background:new 0 0 38 60" xml:space="preserve"><style>.st0{fill:#ff7f00}</style><path class="st0" d="M22.7 55.8c-1.6-.2-3-.4-4.4-.7-2.8-.6-3.7-2-3.2-4.8.1-.5 0-1 0-1.5-.1 0-.3-.1-.4-.1-.7 1.5-1.6 2.9-2 4.5-.6 2.1.8 4.4 2.8 5.4 2.1 1 4.8.7 6.2-.9.4-.5.6-1.2 1-1.9zm12.7-.7c-1.4.1-2.5.2-3.6.4-3.5.5-4 .2-5.4-3-.1-.2-.3-.2-.6-.5-.7 1.5-1.2 2.9-.6 4.4.7 1.7 2 2.8 3.9 3 3.2.4 4.7-1.6 6.3-4.3z"/><path d="M35.2 37.8c-1-2.1-2-4.2-3.1-6.1-.3-.5-.7-.9-1.2-1.2-.2-.8-.5-1.5-.6-2.3-.7-3-1.5-6-1.9-9.1-.3-2.9.1-4.7 2.3-5.6.7-.3 1.3-.9 1.9-1.6.4.1.9.3 1.5.4 1.1-1.2 2.8-2.2 1.4-3.2v-.2c0-1.9-.1-2.1-1.4-1.9-1.5.2-3 .4-4.6.2-1-.1-1.5.4-2.1 1.4-2.3 4.5-2.5 9.5-1.4 14.6.4 1.9.9 3.9 1.4 5.8.2.8.4 1.2.6 1.5-.2.4-.2.9 0 1.5.5 1.9-.1 2.5-2 2-5.7-1.7-11.5-2.1-17.3-2.2-2.8-.1-5.6-.2-8-2.2.3.7.5 1.3.9 2.2-.6-.1-1-.2-1.4-.2 0 .1-.1.2 0 .3 3.2 7.4 8 13.5 14.4 18.3 4 3 8.5 3.8 13.3 1.5 3.3-1.6 3.9-3.4 2.4-6.9-.1-.2-.1-.4-.1-.6 1.1.4 2 1.4 2.1 2.7.2 3.4-2.4 4.8-4.7 6.3 4.6.7 8.9-2.7 9.3-7.3.2-2.8-.5-5.5-1.7-8.1zm-1-28.3-.3.6c-.1 0-.2.1-.2.1 0-.1.1-.1.1-.2.1-.3.2-.4.4-.5zm-3.3-.9c.2-.1.8 1 1.4 1.7-.7.2-1 .4-1.2.3-.7-.5-1.1-1.3-.2-2z" style="fill:#fff"/><path d="M32 7.2c1.3-.2 2.5-.3 3.7-.9s2.2-1.6 2.3-2.8c0-.2 0-.5-.1-.7-.2-.4-.6-.7-1-.9C34.1.5 30.9.1 27.8.6c-.7.1-1.3.3-1.9.6-1.3.7-2.2 1.9-2.9 3.2-.4.8-1.9 3.8-1.4 4.7.5.9 3.3-.5 4.1-.7 2.2-.5 4.2-.9 6.3-1.2z" style="fill:#032105"/><circle class="st0" cx="31.5" cy="9.6" r="1.2"/><circle cx="31.3" cy="9.4" r=".7"/><path class="st0" d="M35.3 11.3c-.6.6-.9 1-1.2 1.3-.1-.1-.3-.1-.4-.2l.3-1.2c0-.3 0-.7-.2-.8-.2-.1-.6-.1-.9 0-.5.3-.9.8-1.4 1.1-.5.3-1 .6-1.7.9.4 1.3.8 2.5 1.3 3.8.5 1.1 1.4 1.6 2.6 1.6 2-.1 2.7-1 2-2.9-.2-.6-.5-1.1-.5-1.7 0-.4.1-1 .1-1.9z"/><path d="M30.8 1.3c-.2.1-.3.3-.3.6 0 .5.1.9.1 1.4 0 .4-.2.8-.4 1.3l-.3.3h-.3c-.2 0-.4-.2-.3-.3 0-.1.2-.2.4-.2h.1l-.2-1.1c-.1-.5-.5-1-1.1-1.3-.1-.1-.2-.1-.3-.1V6h1.5c.1.4.4.7.9.9.1 0 .2.1.3.2.1-.1.2-.1.3-.2.5-.2.8-.6.9-.9h1.5V1.7c-.1 0-.2.1-.3.1-.6.3-1 .7-1.1 1.3L32 4.2h.1c.2 0 .4.1.4.2 0 .2-.1.3-.3.3h-.3l-.3-.3c-.4-.3-.6-.7-.6-1.2s.1-.9.1-1.4c0-.2-.1-.4-.3-.5zm2.2 1v2.1h-.2c-.1-.2-.2-.3-.5-.4l.2-.9c0-.3.2-.6.5-.8zm-4.4 0c.3.2.5.5.5.8l.2.9c-.2.1-.4.2-.5.4h-.2V2.3zm2.2 1.9c.1.2.3.5.5.7-.2 0-.4.1-.5.2-.1-.1-.3-.2-.5-.2.2-.2.4-.5.5-.7zm2.2.4v.8h-1c0-.1 0-.3-.1-.4h.2c.3-.1.5-.2.6-.4h.3zm-4.1 0c0 .2.3.4.6.4h.2c-.1.1-.1.3-.1.4h-1v-.8h.3zm2.7.9H31c0-.2.2-.3.5-.3.1.1.1.2.1.3zm-1 0H30c0-.1 0-.2.1-.3.3 0 .5.1.5.3zm.4.9v-.6h.5c0 .2-.2.4-.5.6zm-.4 0c-.2-.2-.4-.4-.5-.6h.5v.6z" style="fill:#ffd500"/></svg>