<svg version="1.1" id="Layer_1" xmlns="http://www.w3.org/2000/svg" x="0" y="0" viewBox="0 0 310 413" style="enable-background:new 0 0 310 413" xml:space="preserve"><style>.st0{fill:#fff}.st1{fill:#f15a24}</style><path class="st0" d="M57.8 153.9c-10.9 17.8-14.5 39.1-16.5 60-1.5 15.9-2.3 32.2 2.2 47.6 2.5 8.8 6.7 17.1 10 25.7 7.2 18.9 9.7 39.3 12 59.4 1 8.9 2.3 18.5 8.5 25 7 7.2 18 8.2 28.1 8.7 16 .7 32.2 1.1 47.7 5.1 15.5 4 30.6 12.1 39.7 25.3 1.4-14.6 12.4-27.8 26.6-31.8 12.2-3.4 25.2-.3 37.8-.7 12.7-.4 27.2-6.7 29.3-19.2 1.3-7.6-2.4-14.9-5.2-22.1-6.1-15.3-8.5-32.1-7-48.5 2.2 1.9 5.9.9 7.8-1.3 1.9-2.2 2.5-5.2 3.1-8.1 3.2-17 6.5-34 9.7-50.9 1.4-7.5 2.9-15.1 1.9-22.6-.9-6.9-3.8-13.4-6.6-19.7-4-9-8.2-17.9-12.3-26.8-3.7-7.9-7.6-16-13.6-22.4-5.3-5.6-12.1-9.6-17.8-14.9-4.7-4.4-8.7-9.6-13.9-13.4-5.5-4-12.2-6.2-18.8-7.9-22.5-5.5-46.4-5-68.7 1-11.1 3-22.2 7.3-32 13.1-8.4 5-17.7 8.2-26.1 13.5-10.6 6.6-19.5 15.5-25.9 25.9z"/><path class="st1" d="M173.5 169c9.7-.1 16.1 2.5 21.4 6.4 3.7 2.7 6.5 5.9 10.3 8.5 13 9.3 26.3 18.4 39.4 27.6 5.6 3.9 11.6 7.7 16.2 12.1 10.2 9.7 8 19.6-5.9 26.9-11.6 6.1-19.6 13.6-24.9 22.6-2.1 3.5-5.7 6.7-9.5 9.5-3.7 2.8-9 3.5-14.2 1.8-11.5-3.7-22.9-3.1-34.3-.1-14.2 3.7-27.1 2-38.9-4.1-15.2-7.9-30.8-15.3-47.5-21.7-4.7-1.8-8.9-4.7-12.1-7.7-6-5.5-4.5-10.5 3.2-14.9 1-.6 2-1.2 3.1-1.6 17.9-7.2 30.8-17.7 43-28.6 7.7-6.9 14.2-14.3 21-21.7 6-6.5 12.7-12.5 24.7-14.4 2.2-.3 4.3-.5 5-.6z"/><path d="M278.2 367.6c-2.5-18.5-4.9-36.8-7.4-55.2L237 337c.7-1.7 28.6-27.9 29.4-29 13.6-17.4 17.7-38.4 22.4-59 5.6-24.6 4.9-49-4.3-72.9-18.6-48.2-83.2-97.7-158.1-71.4-42.6 14.9-69.4 44.6-80.9 88-5 19-2.6 38.1 1.8 56.7 3.4 14.3 8.3 28.3 13.3 42.1 3 8.4 8.9 15.1 16.4 20.2 1.3.9 2.5 2 4.7 3.9-14.1-1.7-13.6 10.2-19.4 17.7 5.5-.4 5.6 2.7 5.1 5.7-.9 5.9-2.1 11.7-2.9 16.1 1.7 3 3.4 4.9 3.8 7 1 5.7 52.9 14.3 53.6 21-3.7.9-58.8-.9-63.2.2-1-11.2-1.8-21.6-2.9-31.9-.2-1.9 1.3-5-2.6-5.2-.1 0-.3-2.1-.2-3.1.3-2.6.9-5.2 1.4-8.3-1.8.5-3 .8-4.9 1.3 1.3-3.3 1.8-6.3 3.5-8.3 2.7-3.3 3-6.5 2.1-10.5-3.7-16.2-7.6-32.3-10.4-48.6-2.8-15.8-5.8-31.8-6.3-47.8-1.2-37.8 13.2-69.7 41-95.2 64.2-59 169.3-40.9 208.8 36.1 13.4 26.1 17.4 53.3 9.1 82.4-10.8 37.9-15.9 76.7-13.5 116.2.4 4.8-2.2 6.3-5.6 7.2z"/><path d="M97.2 169.2c-.3 10.3-3.5 19.5-11 26.9-3.8 3.7-8.4 5.7-13.6 4-5.1-1.6-7.2-6.1-8.3-11-2.5-11.5.8-21.7 7.7-30.8 3.7-4.9 8.6-9 15.2-7.3 7.3 1.8 8.8 8.3 9.9 14.7.3 1.2.1 2.4.1 3.5zm-24 10.6c.8-3.2.9-5.1 1.8-6.5 1.6-2.5 3.7-4.6 5.8-6.8.8-.9 3.1-1.6 3-2.1-.4-2.3-1-4.7-2.2-6.7-.4-.6-3.1-.3-4.4.3-4.4 2.2-8.9 12.2-7.5 16.8.4 1.5 1.8 2.7 3.5 5zm196.7-14.3c0 5.3-1 10.2-5.9 12.9s-9.8 1-14-2.1c-11.2-8.2-17-19.3-16.1-33.3.6-9.1 8.7-13.6 16.9-9.2 12.3 6.8 17.7 18.1 19.1 31.7zm-20.2-8.6c-2.1-5.1-3.6-10.3-6.3-14.8-1.9-3.2-5-2.2-6 1.5-1.6 6.3 1 11.7 4.8 16.4.8 1 3.2 2 4.2 1.5 1.4-.6 2-2.6 3.3-4.6z" style="fill:#29abe2"/><path class="st0" d="M73.2 179.8c-1.7-2.4-3.1-3.6-3.5-5-1.3-4.6 3.1-14.6 7.5-16.8 1.3-.6 4-.9 4.4-.3 1.2 2 1.9 4.4 2.2 6.7.1.5-2.1 1.2-3 2.1-2.1 2.2-4.2 4.3-5.8 6.8-.9 1.4-.9 3.4-1.8 6.5zm176.5-22.9c-1.3 2-2 4-3.3 4.6-1 .5-3.3-.5-4.2-1.5-3.9-4.7-6.4-10.1-4.8-16.4.9-3.8 4-4.7 6-1.5 2.7 4.4 4.3 9.7 6.3 14.8z"/><path class="st1" d="M79.5 238.8h29.4c4 0 8-.2 11.9.3 3.3.5 6.8 1.6 8.8 4.4 1.1 1.5 3.7 0 2.6-1.5-4.9-6.6-14-6.2-21.4-6.2H79.4c-1.8 0-1.8 3 .1 3z"/><path d="M72.3 244.4c12.1-8.7 26.5-13.3 40.4-10.4 7.1 1.4 13.5 4.9 19.5 9.7 6.1 4.8 12 9.8 18.6 13.4 24 13.1 52.5 11.7 75.6-3.8 3.2-2.2 6.4-4.7 9.4-7.4 3.2-2.9 6.4-6 9.9-8.3 5.7-3.8 13.9-5.3 18.5 2 1.2 2 3.4-.8 2.2-2.8-3.9-6.2-10.8-7.4-16.5-5.6-7 2.2-12.5 8.7-18.4 13.6-11.1 9.3-24 14.9-37.1 16.6-13.2 1.7-26.6-.4-39-6.3-6.7-3.2-12.7-7.8-18.7-12.7-6.2-5.1-12.6-9.5-19.8-11.6-15.6-4.5-32.2.1-46 10-1.9 1.4-.3 4.8 1.4 3.6z"/><path d="M74.2 248.1c1.4-5.2 5.8-8.6 10.7-10.3 5.6-2 11.6-2.2 17.5-1.6 15 1.5 29.1 7.8 42.8 13.8 13 5.7 26.1 11.4 40.2 13.7 13 2.1 26.9 1.5 38.6-5 5.6-3.1 10.2-7.5 14.9-11.8 4.4-4.1 9.1-8.3 14.8-10.5 1.4-.5 2.8-.9 4.3-1.1 1.9-.3 1.1-3.2-.8-2.9-12.7 2.2-20.4 13.8-30.3 20.9-11.1 8.1-25.1 9.6-38.5 7.8-14.4-1.9-27.7-7.6-40.8-13.4-13.9-6.1-28-12.4-43.2-14.3-6.2-.8-12.5-.9-18.5.9-5.2 1.5-10.3 4.4-13 9.2-.7 1.2-1.2 2.5-1.5 3.8-.6 1.9 2.3 2.7 2.8.8zm86.4-47.4c-4 1.6-8.1 3.3-11.1 6.4-2.9 2.9-4.6 7.1-3.6 11.2.4 1.9 3.3 1.1 2.9-.8-.7-3.2.9-6.4 3.2-8.6 2.6-2.5 6.1-3.9 9.4-5.3.8-.3 1.3-1 1-1.8-.1-.8-1-1.4-1.8-1.1zm38.4 3.9c2.4.3 4.6 2 5.6 4.2 1 2.5.4 5.4-1.4 7.3-1.3 1.4.8 3.5 2.1 2.1 2.6-2.7 3.5-6.9 2.1-10.4s-4.6-5.8-8.4-6.2c-.8-.1-1.5.8-1.5 1.5 0 .9.7 1.4 1.5 1.5z"/><path d="M75.1 242.2c11.5-6.5 25.3-6.1 37.8-3 13.4 3.3 25.6 10 38.2 15.5 12.6 5.6 25.7 10 39.7 9.7 13.3-.2 26.5-4 38-10.6 6.3-3.6 11.9-8.2 18-12 5.9-3.7 12.4-6.6 19.6-5.7 1.9.2 1.9-2.8 0-3-13-1.6-23.7 8-33.8 14.8-11.2 7.6-24.2 12.4-37.8 13.3-6.8.5-13.6 0-20.2-1.5-6.9-1.5-13.5-4-20-6.8-12.7-5.5-24.9-12.3-38.3-16-14-3.9-29.7-4.8-42.7 2.6-1.7 1.1-.1 3.7 1.5 2.7z"/><ellipse cx="80.5" cy="176" rx="6.5" ry="10"/><ellipse cx="249.5" cy="158" rx="6.5" ry="10"/><path d="M47.5 146.2c8.4-6.3 17-12.8 27-16 12.5-4 25.9-2.8 39-2.3 20.4.7 41.1-.6 60.6-6.7 11.7-3.6 23.1-8.9 35.3-9.6 6.2-.3 12.5.6 18.7 0 20.8-2 36.8-20.4 43.4-40.2 4.7-14.1 5.5-30.5-2.1-43.3-6.4-10.8-17.9-17.7-30-21.1-12-3.4-24.7-3.7-37.2-4-11.3-.3-22.7-.5-34-.8-6.9-.2-13.9-.3-20.7.8-7.5 1.2-14.7 3.9-21.8 6.6-13.6 5.2-27.2 10.6-40.7 16.1-12.3 5-24.6 10.3-35.1 18.4-9 6.9-16.2 15.6-23.4 24.2-8 9.6-16.1 19.5-19.9 31.4-2.7 8.5-3.1 17.7-3.4 26.6-.5 13.6-.8 27.8 4.8 40.3 1.7 3.8 4.5 7.8 8.6 8.4 4 .7 7.7-1.9 10.8-4.6 6.1-5.5 11.3-12 15.3-19.2 2.7-4.9 5.7-10.7 11.2-11.7" style="fill:#2c492a"/><path d="M48.3 147.5c9.9-7.4 20-14.8 32.4-17.3 12.7-2.6 25.9-.8 38.7-.6 13 .2 26.1-.6 39-2.9 6.4-1.2 12.8-2.8 19-4.8 6.1-2 12-4.3 18.1-6.1 6.3-1.8 12.6-2.8 19.1-2.6 6.1.1 12.2.6 18.3-.7 9.7-2.1 18.4-7.7 25.1-15 7-7.5 12.2-16.7 15.3-26.5 3.4-10.8 4.7-22.7 1.6-33.8-3-10.6-10.1-19.2-19.5-24.9-10.2-6.3-22.1-8.8-33.9-9.9-13.4-1.2-26.9-1-40.3-1.3-13.3-.3-27.1-1.6-40.1 1.8-6.4 1.7-12.6 4.1-18.8 6.5-6.4 2.5-12.8 4.9-19.2 7.5-12 4.7-24.1 9.3-35.6 15-5.6 2.7-11 5.8-16.1 9.4-5 3.6-9.6 7.8-13.9 12.3s-8.3 9.3-12.3 14.1c-3.8 4.6-7.7 9.3-11.1 14.2-3.3 4.8-6.2 10-8.3 15.5-2.2 5.9-3.1 12.2-3.6 18.5s-.6 12.7-.7 19.1c-.1 6.2.1 12.4 1.1 18.5 1.4 8.6 6.2 26.7 18.5 22.7 2.8-.9 5.2-2.7 7.3-4.6 2.3-2 4.4-4.2 6.4-6.5 3.9-4.4 7.1-9.2 9.9-14.3 2.2-3.9 4.7-8.7 9.6-9.7 1.9-.4 1.1-3.3-.8-2.9-4.8 1-7.9 5-10.2 9-2.9 4.9-5.6 9.7-9.2 14.1-1.8 2.2-3.8 4.3-5.9 6.3-2 2-4.2 4-6.8 5.2-2.5 1.2-5.2 1.2-7.5-.5-2-1.5-3.4-3.8-4.4-6.1-5.1-10.9-5.2-23.5-4.9-35.3.3-12.3.4-25 5.6-36.4C15.1 83.8 22.9 74.9 30.4 66c7.8-9.3 16.1-18.3 26.4-25C67 34.5 78.4 30 89.6 25.4c12.3-5 24.6-9.9 37-14.6 5.9-2.3 11.9-4.5 18.1-5.8 6.5-1.4 13.1-1.5 19.7-1.4 13.2.2 26.5.6 39.7.9 12.6.3 25.5.7 37.6 4.7 9.7 3.2 19.1 8.9 25 17.5 6.4 9.3 7.8 20.9 6.2 31.8-1.5 10.3-5.3 20.3-11.1 29-5.4 8-12.6 15-21.4 19.1-4.5 2.1-9.5 3.3-14.5 3.6-6.5.3-13-.6-19.5.1-12.2 1.4-23.5 6.7-35.2 10.1-12.3 3.5-25 5.3-37.7 5.9-6.3.3-12.7.3-19 .1-6.3-.2-12.7-.6-19-.6-6.1 0-12.4.5-18.3 2-5.7 1.5-11.1 4-16.2 7-5 3-9.6 6.5-14.3 10-1.5 1.2 0 3.8 1.6 2.7z"/><path d="M116.1 36c-1.9 2.1-2.2 5-.8 8.6 2.3 6.1 5.3 10.4 7.6 16.5 1.8 4.8 1.3 10.6 1.2 17.5-.7 1.7-1.5 3.3-2.2 5l-3.6 1.4c-2.4.9-5.7-.6-4.9-2.3-.5-1.2 1.5-3.3 3.8-4.2l1.2-.5-7.4-12.4c-3.5-5.6-10.5-9.8-19.1-10.8-1.6-.8-2.8-.3-4 .1l18.9 49.6 17.8-6.8c3 4.4 8 6.7 14.8 6.8 1.2-.5 2.8.3 4.5 1.1.7-1.7 1.9-2.1 2.6-3.8 5-4.7 6.7-10.9 6.5-15l17.8-6.8L151 28c-1.2.5-1.9 2.1-3.1 2.6-5.7 6.3-8.7 13-7.1 20.7l2.7 14.2 1.2-.5c2.4-.9 5.2-.6 5.7.6.9 2.4.2 4.1-2.2 5l-3.6 1.4c-1.6-.8-3.3-1.5-4.9-2.3-6.1-1.8-10.4-5.8-12.7-11.8s-3-11.3-5.3-17.4c-.6-2.2-2.7-4.1-5.6-4.5zm30.8 2.2 9.7 25.4-2.4.9c-2.1-2-3.8-2.7-7.8-2.6l-1.8-11.8c-1.3-3.6-.4-8.1 2.3-11.9zM94.6 58.1c4.5 1.1 8.2 3.8 9.6 7.4l6.5 10c-1.9 2.1-3.8 4.2-4.1 7.1l-2.4.9-9.6-25.4zm34.9 13c2.1 2 5.9 4.7 9.2 6.2-2.4.9-4.3 3-5 4.7-1.6-.8-4.5-1.1-6.9-.2 1.5-3.2 2.4-7.8 2.7-10.7zm28-5.1 3.7 9.7-11.9 4.5c-.5-1.2-1.4-3.6-3-4.4l2.4-.9c3.1-2.6 5-4.7 5.3-7.6l3.5-1.3zm-48.7 18.6c.9 2.4 5.4 3.5 9 2.1l2.4-.9c-.7 1.7.2 4.1.7 5.3L109 95.6l-3.7-9.7 3.5-1.3zm36.2-1.3-7.1 2.7c-.9-2.4 1-4.5 4.6-5.9 1.6.7 2 1.9 2.5 3.2zm-11.9 4.5-7.1 2.7c-.5-1.2-.9-2.4-.2-4.1 3.6-1.3 6.4-1 7.3 1.4zm8.9 9.1-2.8-7.3 5.9-2.3c1 2.5-.4 5.8-3.1 9.6zm-4.7 1.8c-3.3-1.5-6.6-3-8.7-5l5.9-2.3 2.8 7.3z" style="fill:#ffd500"/></svg>