<?xml version="1.0" encoding="utf-8"?>
<!-- Generator: Adobe Illustrator 26.0.3, SVG Export Plug-In . SVG Version: 6.00 Build 0)  -->
<svg version="1.1" id="Layer_1" xmlns="http://www.w3.org/2000/svg" xmlns:xlink="http://www.w3.org/1999/xlink" x="0px" y="0px"
	 viewBox="0 0 310 413" style="enable-background:new 0 0 310 413;" xml:space="preserve">
<style type="text/css">
	.st0{fill:#FFFFFF;}
	.st1{fill:#F15A24;}
	.st2{fill:#29ABE2;}
	.st3{fill:#2C492A;}
	.st4{fill:#FFD500;}
</style>
<path class="st0" d="M57.8,153.9c-10.9,17.8-14.5,39.1-16.5,60c-1.5,15.9-2.3,32.2,2.2,47.6c2.5,8.8,6.7,17.1,10,25.7
	c7.2,18.9,9.7,39.3,12,59.4c1,8.9,2.3,18.5,8.5,25c7,7.2,18,8.2,28.1,8.7c16,0.7,32.2,1.1,47.7,5.1c15.5,4,30.6,12.1,39.7,25.3
	c1.4-14.6,12.4-27.8,26.6-31.8c12.2-3.4,25.2-0.3,37.8-0.7c12.7-0.4,27.2-6.7,29.3-19.2c1.3-7.6-2.4-14.9-5.2-22.1
	c-6.1-15.3-8.5-32.1-7-48.5c2.2,1.9,5.9,0.9,7.8-1.3c1.9-2.2,2.5-5.2,3.1-8.1c3.2-17,6.5-34,9.7-50.9c1.4-7.5,2.9-15.1,1.9-22.6
	c-0.9-6.9-3.8-13.4-6.6-19.7c-4-9-8.2-17.9-12.3-26.8c-3.7-7.9-7.6-16-13.6-22.4c-5.3-5.6-12.1-9.6-17.8-14.9
	c-4.7-4.4-8.7-9.6-13.9-13.4c-5.5-4-12.2-6.2-18.8-7.9c-22.5-5.5-46.4-5-68.7,1c-11.1,3-22.2,7.3-32,13.1c-8.4,5-17.7,8.2-26.1,13.5
	C73.1,134.6,64.2,143.5,57.8,153.9z"/>
<path class="st1" d="M173.5,169c9.7-0.1,16.1,2.5,21.4,6.4c3.7,2.7,6.5,5.9,10.3,8.5c13,9.3,26.3,18.4,39.4,27.6
	c5.6,3.9,11.6,7.7,16.2,12.1c10.2,9.7,8,19.6-5.9,26.9c-11.6,6.1-19.6,13.6-24.9,22.6c-2.1,3.5-5.7,6.7-9.5,9.5
	c-3.7,2.8-9,3.5-14.2,1.8c-11.5-3.7-22.9-3.1-34.3-0.1c-14.2,3.7-27.1,2-38.9-4.1c-15.2-7.9-30.8-15.3-47.5-21.7
	c-4.7-1.8-8.9-4.7-12.1-7.7c-6-5.5-4.5-10.5,3.2-14.9c1-0.6,2-1.2,3.1-1.6c17.9-7.2,30.8-17.7,43-28.6c7.7-6.9,14.2-14.3,21-21.7
	c6-6.5,12.7-12.5,24.7-14.4C170.7,169.3,172.8,169.1,173.5,169z"/>
<path d="M278.2,367.6c-2.5-18.5-4.9-36.8-7.4-55.2L237,337c0.7-1.7,28.6-27.9,29.4-29c13.6-17.4,17.7-38.4,22.4-59
	c5.6-24.6,4.9-49-4.3-72.9c-18.6-48.2-83.2-97.7-158.1-71.4c-42.6,14.9-69.4,44.6-80.9,88c-5,19-2.6,38.1,1.8,56.7
	c3.4,14.3,8.3,28.3,13.3,42.1c3,8.4,8.9,15.1,16.4,20.2c1.3,0.9,2.5,2,4.7,3.9c-14.1-1.7-13.6,10.2-19.4,17.7
	c5.5-0.4,5.6,2.7,5.1,5.7c-0.9,5.9-2.1,11.7-2.9,16.1c1.7,3,3.4,4.9,3.8,7c1,5.7,52.9,14.3,53.6,21c-3.7,0.9-58.8-0.9-63.2,0.2
	c-1-11.2-1.8-21.6-2.9-31.9c-0.2-1.9,1.3-5-2.6-5.2c-0.1,0-0.3-2.1-0.2-3.1c0.3-2.6,0.9-5.2,1.4-8.3c-1.8,0.5-3,0.8-4.9,1.3
	c1.3-3.3,1.8-6.3,3.5-8.3c2.7-3.3,3-6.5,2.1-10.5c-3.7-16.2-7.6-32.3-10.4-48.6c-2.8-15.8-5.8-31.8-6.3-47.8
	c-1.2-37.8,13.2-69.7,41-95.2c64.2-59,169.3-40.9,208.8,36.1c13.4,26.1,17.4,53.3,9.1,82.4c-10.8,37.9-15.9,76.7-13.5,116.2
	C284.2,365.2,281.6,366.7,278.2,367.6z"/>
<path class="st2" d="M97.2,169.2c-0.3,10.3-3.5,19.5-11,26.9c-3.8,3.7-8.4,5.7-13.6,4c-5.1-1.6-7.2-6.1-8.3-11
	c-2.5-11.5,0.8-21.7,7.7-30.8c3.7-4.9,8.6-9,15.2-7.3c7.3,1.8,8.8,8.3,9.9,14.7C97.4,166.9,97.2,168.1,97.2,169.2z M73.2,179.8
	c0.8-3.2,0.9-5.1,1.8-6.5c1.6-2.5,3.7-4.6,5.8-6.8c0.8-0.9,3.1-1.6,3-2.1c-0.4-2.3-1-4.7-2.2-6.7c-0.4-0.6-3.1-0.3-4.4,0.3
	c-4.4,2.2-8.9,12.2-7.5,16.8C70.1,176.3,71.5,177.5,73.2,179.8z"/>
<path class="st2" d="M269.9,165.5c0,5.3-1,10.2-5.9,12.9s-9.8,1-14-2.1c-11.2-8.2-17-19.3-16.1-33.3c0.6-9.1,8.7-13.6,16.9-9.2
	C263.1,140.6,268.5,151.9,269.9,165.5z M249.7,156.9c-2.1-5.1-3.6-10.3-6.3-14.8c-1.9-3.2-5-2.2-6,1.5c-1.6,6.3,1,11.7,4.8,16.4
	c0.8,1,3.2,2,4.2,1.5C247.8,160.9,248.4,158.9,249.7,156.9z"/>
<path class="st0" d="M73.2,179.8c-1.7-2.4-3.1-3.6-3.5-5c-1.3-4.6,3.1-14.6,7.5-16.8c1.3-0.6,4-0.9,4.4-0.3c1.2,2,1.9,4.4,2.2,6.7
	c0.1,0.5-2.1,1.2-3,2.1c-2.1,2.2-4.2,4.3-5.8,6.8C74.1,174.7,74.1,176.7,73.2,179.8z"/>
<path class="st0" d="M249.7,156.9c-1.3,2-2,4-3.3,4.6c-1,0.5-3.3-0.5-4.2-1.5c-3.9-4.7-6.4-10.1-4.8-16.4c0.9-3.8,4-4.7,6-1.5
	C246.1,146.5,247.7,151.8,249.7,156.9z"/>
<g>
	<g>
		<path class="st1" d="M79.5,238.8c9.8,0,19.6,0,29.4,0c4,0,8-0.2,11.9,0.3c3.3,0.5,6.8,1.6,8.8,4.4c1.1,1.5,3.7,0,2.6-1.5
			c-4.9-6.6-14-6.2-21.4-6.2c-10.5,0-20.9,0-31.4,0C77.6,235.8,77.6,238.8,79.5,238.8L79.5,238.8z"/>
	</g>
</g>
<g>
	<path d="M72.3,244.4c12.1-8.7,26.5-13.3,40.4-10.4c7.1,1.4,13.5,4.9,19.5,9.7c6.1,4.8,12,9.8,18.6,13.4c24,13.1,52.5,11.7,75.6-3.8
		c3.2-2.2,6.4-4.7,9.4-7.4c3.2-2.9,6.4-6,9.9-8.3c5.7-3.8,13.9-5.3,18.5,2c1.2,2,3.4-0.8,2.2-2.8c-3.9-6.2-10.8-7.4-16.5-5.6
		c-7,2.2-12.5,8.7-18.4,13.6c-11.1,9.3-24,14.9-37.1,16.6c-13.2,1.7-26.6-0.4-39-6.3c-6.7-3.2-12.7-7.8-18.7-12.7
		c-6.2-5.1-12.6-9.5-19.8-11.6c-15.6-4.5-32.2,0.1-46,10C69,242.2,70.6,245.6,72.3,244.4L72.3,244.4z"/>
</g>
<g>
	<g>
		<path d="M74.2,248.1c1.4-5.2,5.8-8.6,10.7-10.3c5.6-2,11.6-2.2,17.5-1.6c15,1.5,29.1,7.8,42.8,13.8c13,5.7,26.1,11.4,40.2,13.7
			c13,2.1,26.9,1.5,38.6-5c5.6-3.1,10.2-7.5,14.9-11.8c4.4-4.1,9.1-8.3,14.8-10.5c1.4-0.5,2.8-0.9,4.3-1.1c1.9-0.3,1.1-3.2-0.8-2.9
			c-12.7,2.2-20.4,13.8-30.3,20.9c-11.1,8.1-25.1,9.6-38.5,7.8c-14.4-1.9-27.7-7.6-40.8-13.4c-13.9-6.1-28-12.4-43.2-14.3
			c-6.2-0.8-12.5-0.9-18.5,0.9c-5.2,1.5-10.3,4.4-13,9.2c-0.7,1.2-1.2,2.5-1.5,3.8C70.8,249.2,73.7,250,74.2,248.1L74.2,248.1z"/>
	</g>
</g>
<g>
	<g>
		<path d="M160.6,200.7c-4,1.6-8.1,3.3-11.1,6.4c-2.9,2.9-4.6,7.1-3.6,11.2c0.4,1.9,3.3,1.1,2.9-0.8c-0.7-3.2,0.9-6.4,3.2-8.6
			c2.6-2.5,6.1-3.9,9.4-5.3c0.8-0.3,1.3-1,1-1.8C162.3,201,161.4,200.4,160.6,200.7L160.6,200.7z"/>
	</g>
</g>
<g>
	<g>
		<path d="M199,204.6c2.4,0.3,4.6,2,5.6,4.2c1,2.5,0.4,5.4-1.4,7.3c-1.3,1.4,0.8,3.5,2.1,2.1c2.6-2.7,3.5-6.9,2.1-10.4
			s-4.6-5.8-8.4-6.2c-0.8-0.1-1.5,0.8-1.5,1.5C197.5,204,198.2,204.5,199,204.6L199,204.6z"/>
	</g>
</g>
<g>
	<g>
		<path d="M75.1,242.2c11.5-6.5,25.3-6.1,37.8-3c13.4,3.3,25.6,10,38.2,15.5c12.6,5.6,25.7,10,39.7,9.7c13.3-0.2,26.5-4,38-10.6
			c6.3-3.6,11.9-8.2,18-12c5.9-3.7,12.4-6.6,19.6-5.7c1.9,0.2,1.9-2.8,0-3c-13-1.6-23.7,8-33.8,14.8c-11.2,7.6-24.2,12.4-37.8,13.3
			c-6.8,0.5-13.6,0-20.2-1.5c-6.9-1.5-13.5-4-20-6.8c-12.7-5.5-24.9-12.3-38.3-16c-14-3.9-29.7-4.8-42.7,2.6
			C71.9,240.6,73.5,243.2,75.1,242.2L75.1,242.2z"/>
	</g>
</g>
<ellipse cx="80.5" cy="176" rx="6.5" ry="10"/>
<ellipse cx="249.5" cy="158" rx="6.5" ry="10"/>
<g>
	<path class="st3" d="M47.5,146.2c8.4-6.3,17-12.8,27-16c12.5-4,25.9-2.8,39-2.3c20.4,0.7,41.1-0.6,60.6-6.7
		c11.7-3.6,23.1-8.9,35.3-9.6c6.2-0.3,12.5,0.6,18.7,0c20.8-2,36.8-20.4,43.4-40.2c4.7-14.1,5.5-30.5-2.1-43.3
		c-6.4-10.8-17.9-17.7-30-21.1c-12-3.4-24.7-3.7-37.2-4c-11.3-0.3-22.7-0.5-34-0.8C161.3,2,154.3,1.9,147.5,3
		c-7.5,1.2-14.7,3.9-21.8,6.6C112.1,14.8,98.5,20.2,85,25.7c-12.3,5-24.6,10.3-35.1,18.4c-9,6.9-16.2,15.6-23.4,24.2
		c-8,9.6-16.1,19.5-19.9,31.4c-2.7,8.5-3.1,17.7-3.4,26.6c-0.5,13.6-0.8,27.8,4.8,40.3c1.7,3.8,4.5,7.8,8.6,8.4
		c4,0.7,7.7-1.9,10.8-4.6c6.1-5.5,11.3-12,15.3-19.2c2.7-4.9,5.7-10.7,11.2-11.7"/>
	<g>
		<path d="M48.3,147.5c9.9-7.4,20-14.8,32.4-17.3c12.7-2.6,25.9-0.8,38.7-0.6c13,0.2,26.1-0.6,39-2.9c6.4-1.2,12.8-2.8,19-4.8
			c6.1-2,12-4.3,18.1-6.1c6.3-1.8,12.6-2.8,19.1-2.6c6.1,0.1,12.2,0.6,18.3-0.7c9.7-2.1,18.4-7.7,25.1-15c7-7.5,12.2-16.7,15.3-26.5
			c3.4-10.8,4.7-22.7,1.6-33.8c-3-10.6-10.1-19.2-19.5-24.9c-10.2-6.3-22.1-8.8-33.9-9.9c-13.4-1.2-26.9-1-40.3-1.3
			c-13.3-0.3-27.1-1.6-40.1,1.8c-6.4,1.7-12.6,4.1-18.8,6.5c-6.4,2.5-12.8,4.9-19.2,7.5c-12,4.7-24.1,9.3-35.6,15
			c-5.6,2.7-11,5.8-16.1,9.4c-5,3.6-9.6,7.8-13.9,12.3s-8.3,9.3-12.3,14.1c-3.8,4.6-7.7,9.3-11.1,14.2c-3.3,4.8-6.2,10-8.3,15.5
			c-2.2,5.9-3.1,12.2-3.6,18.5S1.6,128.6,1.5,135c-0.1,6.2,0.1,12.4,1.1,18.5c1.4,8.6,6.2,26.7,18.5,22.7c2.8-0.9,5.2-2.7,7.3-4.6
			c2.3-2,4.4-4.2,6.4-6.5c3.9-4.4,7.1-9.2,9.9-14.3c2.2-3.9,4.7-8.7,9.6-9.7c1.9-0.4,1.1-3.3-0.8-2.9c-4.8,1-7.9,5-10.2,9
			c-2.9,4.9-5.6,9.7-9.2,14.1c-1.8,2.2-3.8,4.3-5.9,6.3c-2,2-4.2,4-6.8,5.2c-2.5,1.2-5.2,1.2-7.5-0.5c-2-1.5-3.4-3.8-4.4-6.1
			c-5.1-10.9-5.2-23.5-4.9-35.3c0.3-12.3,0.4-25,5.6-36.4C15.1,83.8,22.9,74.9,30.4,66c7.8-9.3,16.1-18.3,26.4-25
			C67,34.5,78.4,30,89.6,25.4c12.3-5,24.6-9.9,37-14.6c5.9-2.3,11.9-4.5,18.1-5.8c6.5-1.4,13.1-1.5,19.7-1.4
			c13.2,0.2,26.5,0.6,39.7,0.9c12.6,0.3,25.5,0.7,37.6,4.7c9.7,3.2,19.1,8.9,25,17.5c6.4,9.3,7.8,20.9,6.2,31.8
			c-1.5,10.3-5.3,20.3-11.1,29c-5.4,8-12.6,15-21.4,19.1c-4.5,2.1-9.5,3.3-14.5,3.6c-6.5,0.3-13-0.6-19.5,0.1
			c-12.2,1.4-23.5,6.7-35.2,10.1c-12.3,3.5-25,5.3-37.7,5.9c-6.3,0.3-12.7,0.3-19,0.1c-6.3-0.2-12.7-0.6-19-0.6
			c-6.1,0-12.4,0.5-18.3,2c-5.7,1.5-11.1,4-16.2,7c-5,3-9.6,6.5-14.3,10C45.2,146,46.7,148.6,48.3,147.5L48.3,147.5z"/>
	</g>
</g>
<path class="st4" d="M116.1,36c-1.9,2.1-2.2,5-0.8,8.6c2.3,6.1,5.3,10.4,7.6,16.5c1.8,4.8,1.3,10.6,1.2,17.5c-0.7,1.7-1.5,3.3-2.2,5
	l-3.6,1.4c-2.4,0.9-5.7-0.6-4.9-2.3c-0.5-1.2,1.5-3.3,3.8-4.2l1.2-0.5L111,65.6c-3.5-5.6-10.5-9.8-19.1-10.8c-1.6-0.8-2.8-0.3-4,0.1
	l18.9,49.6l17.8-6.8c3,4.4,8,6.7,14.8,6.8c1.2-0.5,2.8,0.3,4.5,1.1c0.7-1.7,1.9-2.1,2.6-3.8c5-4.7,6.7-10.9,6.5-15l17.8-6.8L151,28
	c-1.2,0.5-1.9,2.1-3.1,2.6c-5.7,6.3-8.7,13-7.1,20.7l2.7,14.2l1.2-0.5c2.4-0.9,5.2-0.6,5.7,0.6c0.9,2.4,0.2,4.1-2.2,5l-3.6,1.4
	c-1.6-0.8-3.3-1.5-4.9-2.3c-6.1-1.8-10.4-5.8-12.7-11.8s-3-11.3-5.3-17.4C121.1,38.3,119,36.4,116.1,36L116.1,36z M146.9,38.2
	l9.7,25.4l-2.4,0.9c-2.1-2-3.8-2.7-7.8-2.6l-1.8-11.8C143.3,46.5,144.2,42,146.9,38.2L146.9,38.2z M94.6,58.1
	c4.5,1.1,8.2,3.8,9.6,7.4l6.5,10c-1.9,2.1-3.8,4.2-4.1,7.1l-2.4,0.9L94.6,58.1L94.6,58.1z M129.5,71.1c2.1,2,5.9,4.7,9.2,6.2
	c-2.4,0.9-4.3,3-5,4.7c-1.6-0.8-4.5-1.1-6.9-0.2C128.3,78.6,129.2,74,129.5,71.1L129.5,71.1z M157.5,66l3.7,9.7l-11.9,4.5
	c-0.5-1.2-1.4-3.6-3-4.4l2.4-0.9c3.1-2.6,5-4.7,5.3-7.6L157.5,66L157.5,66z M108.8,84.6c0.9,2.4,5.4,3.5,9,2.1l2.4-0.9
	c-0.7,1.7,0.2,4.1,0.7,5.3L109,95.6l-3.7-9.7L108.8,84.6L108.8,84.6z M145,83.3l-7.1,2.7c-0.9-2.4,1-4.5,4.6-5.9
	C144.1,80.8,144.5,82,145,83.3z M133.1,87.8l-7.1,2.7c-0.5-1.2-0.9-2.4-0.2-4.1C129.4,85.1,132.2,85.4,133.1,87.8z M142,96.9
	l-2.8-7.3l5.9-2.3C146.1,89.8,144.7,93.1,142,96.9z M137.3,98.7c-3.3-1.5-6.6-3-8.7-5l5.9-2.3L137.3,98.7z"/>
</svg>
