<?xml version="1.0" encoding="utf-8"?>
<!-- Generator: Adobe Illustrator 26.0.3, SVG Export Plug-In . SVG Version: 6.00 Build 0)  -->
<svg version="1.1" id="Layer_1" xmlns="http://www.w3.org/2000/svg" xmlns:xlink="http://www.w3.org/1999/xlink" x="0px" y="0px"
	 viewBox="0 0 38 60" style="enable-background:new 0 0 38 60;" xml:space="preserve">
<style type="text/css">
	.st0{fill:#FF7F00;}
	.st1{fill:#FFFFFF;}
	.st2{fill:#032105;}
	.st3{fill:#FFD500;}
</style>
<path class="st0" d="M22.7,55.8c-1.6-0.2-3-0.4-4.4-0.7c-2.8-0.6-3.7-2-3.2-4.8c0.1-0.5,0-1,0-1.5c-0.1,0-0.3-0.1-0.4-0.1
	c-0.7,1.5-1.6,2.9-2,4.5c-0.6,2.1,0.8,4.4,2.8,5.4c2.1,1,4.8,0.7,6.2-0.9C22.1,57.2,22.3,56.5,22.7,55.8z"/>
<path class="st0" d="M35.4,55.1c-1.4,0.1-2.5,0.2-3.6,0.4c-3.5,0.5-4,0.2-5.4-3c-0.1-0.2-0.3-0.2-0.6-0.5c-0.7,1.5-1.2,2.9-0.6,4.4
	c0.7,1.7,2,2.8,3.9,3C32.3,59.8,33.8,57.8,35.4,55.1z"/>
<path class="st1" d="M35.2,37.8c-1-2.1-2-4.2-3.1-6.1c-0.3-0.5-0.7-0.9-1.2-1.2c0,0,0,0,0,0c-0.2-0.8-0.5-1.5-0.6-2.3
	c-0.7-3-1.5-6-1.9-9.1c-0.3-2.9,0.1-4.7,2.3-5.6c0.7-0.3,1.3-0.9,1.9-1.6c0.4,0.1,0.9,0.3,1.5,0.4c1.1-1.2,2.8-2.2,1.4-3.2
	c0-0.1,0-0.1,0-0.2c0-1.9-0.1-2.1-1.4-1.9c-1.5,0.2-3,0.4-4.6,0.2c-1-0.1-1.5,0.4-2.1,1.4c-2.3,4.5-2.5,9.5-1.4,14.6
	c0.4,1.9,0.9,3.9,1.4,5.8c0.2,0.8,0.4,1.2,0.6,1.5c-0.2,0.4-0.2,0.9,0,1.5c0.5,1.9-0.1,2.5-2,2c-5.7-1.7-11.5-2.1-17.3-2.2
	c-2.8-0.1-5.6-0.2-8-2.2c0.3,0.7,0.5,1.3,0.9,2.2c-0.6-0.1-1-0.2-1.4-0.2c0,0.1-0.1,0.2,0,0.3c3.2,7.4,8,13.5,14.4,18.3
	c4,3,8.5,3.8,13.3,1.5c3.3-1.6,3.9-3.4,2.4-6.9c-0.1-0.2-0.1-0.4-0.1-0.6c1.1,0.4,2,1.4,2.1,2.7c0.2,3.4-2.4,4.8-4.7,6.3
	c4.6,0.7,8.9-2.7,9.3-7.3C37.1,43.1,36.4,40.4,35.2,37.8z M34.2,9.5c-0.1,0.2-0.2,0.4-0.3,0.6c-0.1,0-0.2,0.1-0.2,0.1
	c0-0.1,0.1-0.1,0.1-0.2C33.9,9.7,34,9.6,34.2,9.5z M30.9,8.6c0.2-0.1,0.8,1,1.4,1.7c-0.7,0.2-1,0.4-1.2,0.3
	C30.4,10.1,30,9.3,30.9,8.6z"/>
<path class="st2" d="M32,7.2c1.3-0.2,2.5-0.3,3.7-0.9s2.2-1.6,2.3-2.8c0-0.2,0-0.5-0.1-0.7c-0.2-0.4-0.6-0.7-1-0.9
	c-2.8-1.4-6-1.8-9.1-1.3c-0.7,0.1-1.3,0.3-1.9,0.6c-1.3,0.7-2.2,1.9-2.9,3.2c-0.4,0.8-1.9,3.8-1.4,4.7c0.5,0.9,3.3-0.5,4.1-0.7
	C27.9,7.9,29.9,7.5,32,7.2z"/>
<circle class="st0" cx="31.5" cy="9.6" r="1.2"/>
<circle cx="31.3" cy="9.4" r="0.7"/>
<path class="st0" d="M35.3,11.3c-0.6,0.6-0.9,1-1.2,1.3c-0.1-0.1-0.3-0.1-0.4-0.2c0.1-0.4,0.2-0.8,0.3-1.2c0-0.3,0-0.7-0.2-0.8
	c-0.2-0.1-0.6-0.1-0.9,0c-0.5,0.3-0.9,0.8-1.4,1.1c-0.5,0.3-1,0.6-1.7,0.9c0.4,1.3,0.8,2.5,1.3,3.8c0.5,1.1,1.4,1.6,2.6,1.6
	c2-0.1,2.7-1,2-2.9c-0.2-0.6-0.5-1.1-0.5-1.7C35.2,12.8,35.3,12.2,35.3,11.3z"/>
<path class="st3" d="M30.8,1.3c-0.2,0.1-0.3,0.3-0.3,0.6c0,0.5,0.1,0.9,0.1,1.4c0,0.4-0.2,0.8-0.4,1.3c-0.1,0.1-0.2,0.2-0.3,0.3
	l-0.3,0c-0.2,0-0.4-0.2-0.3-0.3c0-0.1,0.2-0.2,0.4-0.2l0.1,0l-0.2-1.1c-0.1-0.5-0.5-1-1.1-1.3c-0.1-0.1-0.2-0.1-0.3-0.1v4.1h1.5
	c0.1,0.4,0.4,0.7,0.9,0.9c0.1,0,0.2,0.1,0.3,0.2c0.1-0.1,0.2-0.1,0.3-0.2c0.5-0.2,0.8-0.6,0.9-0.9h1.5V1.7c-0.1,0-0.2,0.1-0.3,0.1
	c-0.6,0.3-1,0.7-1.1,1.3l-0.2,1.1l0.1,0c0.2,0,0.4,0.1,0.4,0.2c0,0.2-0.1,0.3-0.3,0.3l-0.3,0c-0.1-0.1-0.2-0.2-0.3-0.3
	C31.2,4.1,31,3.7,31,3.2c0-0.5,0.1-0.9,0.1-1.4C31.1,1.6,31,1.4,30.8,1.3L30.8,1.3z M33,2.3v2.1h-0.2c-0.1-0.2-0.2-0.3-0.5-0.4
	l0.2-0.9C32.5,2.8,32.7,2.5,33,2.3L33,2.3z M28.6,2.3c0.3,0.2,0.5,0.5,0.5,0.8L29.3,4c-0.2,0.1-0.4,0.2-0.5,0.4h-0.2L28.6,2.3
	L28.6,2.3z M30.8,4.2c0.1,0.2,0.3,0.5,0.5,0.7c-0.2,0-0.4,0.1-0.5,0.2c-0.1-0.1-0.3-0.2-0.5-0.2C30.5,4.7,30.7,4.4,30.8,4.2
	L30.8,4.2z M33,4.6v0.8h-1c0-0.1,0-0.3-0.1-0.4l0.2,0c0.3-0.1,0.5-0.2,0.6-0.4L33,4.6L33,4.6z M28.9,4.6C28.9,4.8,29.2,5,29.5,5
	l0.2,0c-0.1,0.1-0.1,0.3-0.1,0.4h-1V4.6L28.9,4.6L28.9,4.6z M31.6,5.5H31c0-0.2,0.2-0.3,0.5-0.3C31.6,5.3,31.6,5.4,31.6,5.5z
	 M30.6,5.5H30c0-0.1,0-0.2,0.1-0.3C30.4,5.2,30.6,5.3,30.6,5.5z M31,6.4V5.8h0.5C31.5,6,31.3,6.2,31,6.4z M30.6,6.4
	c-0.2-0.2-0.4-0.4-0.5-0.6h0.5V6.4z"/>
</svg>
